PathFileType	4	(X/Y/Z)	Patient4_TMGait_0pt3_01_left_14.trc.trc
DataRate	CameraRate	NumFrames	NumMarkers	Units	OrigDataRate	OrigDataStartFrame	OrigNumFrames
53.030303030303	53.030303030303	4	33	mm	53.030303030303	53	       141
Frame#	Time	Sacral			L.Shoulder			Chest			R.Shoulder			Neck			R.ASIS			L.ASIS			R.Thigh.Superior			R.Thigh.Lateral			R.Thigh.Inferior			R.Patella			L.Thigh.Superior			L.Thigh.Lateral			L.Thigh.Inferior			L.Patella			L.Shank.Superior			L.Shank.Lateral			L.Shank.Inferior			R.Shank.Superior			R.Shank.Lateral			R.Shank.Inferior			R.Heel			R.Midfoot.Superior			R.Midfoot.Lateral			R.Toe			L.Heel			L.Midfoot.Lateral			L.Midfoot.Superior			L.Toe			L.Elbow			L.Wrist			R.Elbow			R.Wrist			
		X1	Y1	Z1	X2	Y2	Z2	X3	Y3	Z3	X4	Y4	Z4	X5	Y5	Z5	X6	Y6	Z6	X7	Y7	Z7	X8	Y8	Z8	X9	Y9	Z9	X10	Y10	Z10	X11	Y11	Z11	X12	Y12	Z12	X13	Y13	Z13	X14	Y14	Z14	X15	Y15	Z15	X16	Y16	Z16	X17	Y17	Z17	X18	Y18	Z18	X19	Y19	Z19	X20	Y20	Z20	X21	Y21	Z21	X22	Y22	Z22	X23	Y23	Z23	X24	Y24	Z24	X25	Y25	Z25	X26	Y26	Z26	X27	Y27	Z27	X28	Y28	Z28	X29	Y29	Z29	X30	Y30	Z30	X31	Y31	Z31	X32	Y32	Z32	X33	Y33	Z33	

53	26.890571428571	742.880602921938	990.716411793494	441.415096137964	918.229608889019	1417.599317577077	251.159624988028	1017.629274053111	1355.882882950204	417.120443105345	929.586956601014	1435.781289976164	585.123232698580	901.298720273448	1485.573522317622	405.949708658674	971.065603604902	935.711036916875	564.040925780702	964.505781977078	950.454080306410	289.782323610303	1036.192427836666	744.142346005585	544.118274033612	974.537337484517	630.647896257952	615.672582196034	1060.292963210378	578.052299680656	539.730095229386	1061.922697488554	466.120840458370	568.420963233072	1027.496360605111	745.368910139856	337.961283147665	953.374156023162	617.808958856873	283.984298885382	1037.936129542982	549.888182911159	359.568424259399	1041.829111507677	475.877604418617	372.103251854401	1003.001159909702	401.763223022363	365.991006505296	904.369728609260	297.573332572445	310.111916423653	929.754758623679	184.750397164261	389.327448073884	979.170449986976	400.659489574138	578.533879629708	850.360134577002	373.862454394786	630.190543528442	835.294820018340	260.316680683896	592.099678613663	635.489797857090	205.303547176617	545.095238974224	793.382743183495	145.669354514994	620.083818793708	680.171963594491	158.661335210284	636.103148386713	844.222865842004	37.999189901804	675.957188812689	781.160098949478	39.031522723276	421.590474014469	860.333305722511	36.553408008199	346.282393743139	942.934160754385	95.374604692822	379.313135555737	1072.068784091558	41.095004256605	357.884245448889	973.866223033917	1075.434626579807	119.956526075461	1130.935259378510	867.461806684870	126.899013331742	988.145977967773	1090.054091957631	704.457403470124	1209.008717740082	960.738647794463	683.421321272091	
54	26.909428571429	741.319615084772	987.457455592079	437.622578531402	918.453223096102	1416.229968111898	250.792115681502	1015.577477201953	1353.869787516574	417.855826803445	924.850651459843	1432.007982503683	585.298263249444	899.409335216728	1483.403703301164	405.899135316893	968.960097274687	934.094292566966	562.291071378526	964.680976512013	948.441104227125	287.921212159358	1039.482884339378	745.993375357703	541.891455320243	981.623985692789	631.180737058598	613.829039307082	1068.923215775027	580.840317867500	537.824172106963	1073.315418125544	468.260438613643	566.887060524166	1028.312343489700	743.633478386285	336.989111991864	955.134159135352	615.425827658938	283.348614517126	1039.633710972174	548.069159046888	359.826941947294	1043.644768320034	473.512143257573	372.590781702599	1003.332570015642	399.332845844671	366.458350734249	903.149126906106	296.690057400650	310.441207291053	926.143205199687	183.529839500919	389.634991231236	990.236330501549	402.033690378237	576.820373665017	860.597932022653	375.833593543522	627.297801052952	845.438704451004	262.200110225113	589.630713327456	645.456590086284	207.595433980883	541.207745164087	803.009299131028	147.922224086457	617.420787747485	689.492682498514	160.970423928514	632.627886847107	853.442772821591	39.485690104256	673.995255760601	775.580729390084	39.168303210542	421.607933577537	854.769340921477	36.610803368887	346.330614294676	937.464261696261	95.235030166872	379.478157652007	1066.525673458332	40.764875071519	357.832267846578	982.765860069942	1076.038121214923	118.913974887755	1147.300828927016	873.899465189125	127.120992875379	970.594516822860	1082.993714089926	703.281899349323	1178.189538394825	931.760195718181	687.721647454124	
55	26.928285714286	739.865205434002	984.414021808440	434.038917612731	918.830203946821	1415.050381002593	250.712016736038	1013.613087270886	1351.989621475332	418.857117962103	920.150454435029	1428.338954846936	585.676128663992	897.628568030427	1481.389268043109	406.105486395587	966.908128841109	932.615408827023	560.754225497148	964.878276095446	946.579257563558	286.258957746308	1042.319370857799	747.957416845203	540.007962994706	988.025452848102	632.035602346675	612.374013801738	1076.767585080046	583.887214425855	536.407262634325	1083.982006212209	470.953005395503	565.808912672600	1028.880865215030	741.898135909362	336.031161617133	956.419458538011	613.158637529103	282.712434188702	1040.786855533321	546.264294227018	360.003174284701	1044.828412829696	471.233851508762	373.011217143512	1003.155351385909	397.026361299633	366.849558401220	901.546708530821	295.826836949380	310.710101897953	922.345003419970	182.376437489334	389.883151001832	1001.108260108188	403.632914134383	575.613668679804	871.013093571412	376.960033110248	625.116417443702	856.636621259485	263.160640604400	587.794735154612	656.917163916127	206.950110426459	538.371635245896	814.779293724495	149.174454273103	615.400691562471	700.999673084582	160.876954983876	630.056949649560	866.167673415102	40.905874740296	672.386418272925	769.990902990916	39.291813191364	421.621517917280	849.194887105783	36.658912668391	346.366181577316	931.972426673795	95.093050865690	379.620114737153	1060.966909812885	40.468842797112	357.770563492489	991.065494207357	1076.906287835181	118.266929798606	1163.352055994122	881.256796227768	127.906577522533	952.601027268098	1076.734992739134	702.196981631894	1144.697732143799	904.957315034977	691.773772653946	
56	26.947142857143	738.528804322143	981.788687755727	430.668725387867	919.397794818767	1414.209894039423	250.924515707747	1011.774440969092	1350.392322774180	420.123601661282	915.551959151693	1424.978983990588	586.238815480949	895.991519353971	1479.683628295070	406.568485068833	964.908374074316	931.412819747456	559.451958462275	965.114513308183	945.020751824315	284.829437158731	1044.625840288005	750.070199050482	538.464909467353	993.602936905248	633.252992065874	611.298011244774	1083.647764809493	587.178547030220	535.439136987801	1093.713297285509	474.221648269292	565.165230408974	1029.108577647433	740.241692281277	335.130103361510	957.061791099597	611.132638789423	282.080353035672	1041.156861610043	544.544610328227	360.106076414075	1045.110661079819	469.141817040473	373.361097515247	1002.249542846855	394.952137700590	367.152622833121	899.416593172305	295.026064627518	310.899460705741	918.284882169957	181.344531558893	390.068518421777	1011.638924973724	405.487416752340	574.931697801366	881.535568454433	377.200765841829	623.717569100240	868.909418728714	263.168024583254	586.698182677345	670.046678908692	203.284901606435	536.714845631496	828.786401114329	149.349066376367	614.193848786299	714.823835493724	158.339853212704	628.547797454307	882.433734827699	42.191476297767	671.358624753263	764.384618375142	39.396212363884	421.625778046887	843.603372402878	36.695424786304	346.386278084099	926.448490414806	94.956643181292	379.733056966188	1055.385988109236	40.218962443023	357.703334774753	998.831266918319	1078.167789218282	117.947872132642	1179.026548184616	889.650139737489	129.216426175707	934.183810785152	1071.529997441691	701.186681969774	1108.921126826525	881.010823173288	695.523541281343	
